<svg xmlns="http://www.w3.org/2000/svg" viewBox="-0.5 -0.5 24 24" id="Interface-Essential-Bin--Streamline-Pixel.svg" height="24" width="24"><desc>Interface Essential Bin Streamline Icon: https://streamlinehq.com</desc><title>interface-essential-bin</title><g><path d="m18.61921875 6.023125 0 12.04625 1.0996875 0 0 -12.04625 2.185 0 0 -1.0925 -1.0925 0 0 -1.0996875 -4.3843749999999995 0 0 -2.1921874999999997 -1.0925 0 0 2.1921874999999997 -7.6690625 0 0 -2.1921874999999997 -1.0925 0 0 2.1921874999999997 -4.3771875 0 0 1.0996875 -1.0996875 0 0 1.0925 2.1921874999999997 0 0 12.04625 1.0925 0 0 -12.04625 14.2384375 0z" fill="#000000" stroke-width="1"></path><path d="M17.52671875 18.069375h1.0925v3.2846875000000004h-1.0925Z" fill="#000000" stroke-width="1"></path><path d="M5.48046875 21.3540625h12.04625v1.0996875H5.48046875Z" fill="#000000" stroke-width="1"></path><path d="M15.334531250000001 8.2153125h1.0925v8.7615625h-1.0925Z" fill="#000000" stroke-width="1"></path><path d="M14.24203125 16.976875h1.0925v2.185h-1.0925Z" fill="#000000" stroke-width="1"></path><path d="M10.95734375 8.2153125h1.0925v10.9465625h-1.0925Z" fill="#000000" stroke-width="1"></path><path d="M7.66546875 0.54625h7.6690625v1.0925h-7.6690625Z" fill="#000000" stroke-width="1"></path><path d="M7.66546875 16.976875h1.0996875v2.185h-1.0996875Z" fill="#000000" stroke-width="1"></path><path d="M6.572968749999999 8.2153125h1.0925v8.7615625h-1.0925Z" fill="#000000" stroke-width="1"></path><path d="M4.38078125 18.069375h1.0996875v3.2846875000000004h-1.0996875Z" fill="#000000" stroke-width="1"></path></g></svg>